<?xml version="1.0" encoding="utf-8"?>
<!-- Generator: Adobe Illustrator 19.0.0, SVG Export Plug-In . SVG Version: 6.00 Build 0)  -->
<svg version="1.1" xmlns="http://www.w3.org/2000/svg" xmlns:xlink="http://www.w3.org/1999/xlink" x="0px" y="0px"
	 viewBox="0 0 1800 1000" style="enable-background:new 0 0 1800 1000;" xml:space="preserve">
<style type="text/css">
	.st0{fill:#001747;}
	.st1{fill:#11487D;}
	.st2{fill:#0E7FA6;}
	.st3{fill:#38C7BD;}
	.st4{fill:none;}
	.st5{display:none;}
	.st6{display:inline;}
	.st7{fill:#D5024E;}
	.st8{fill:none;stroke:#1ED28C;stroke-width:45.48;stroke-linecap:round;stroke-miterlimit:10;}
	.st9{fill:#000033;}
	.st10{fill:#00CCFF;}
	.st11{fill:#71718D;}
	.st12{fill:#FFFFFF;}
	.st13{fill:#9F9E96;}
	.st14{fill:#FF7676;}
	.st15{fill:#660099;}
	.st16{fill:#7E28A9;}
	.st17{fill:#DBD3C1;}
	.st18{fill:#3E3E3D;}
	.st19{fill:none;stroke:#BAB9B3;stroke-width:5.11;stroke-linecap:round;stroke-linejoin:round;}
	.st20{fill:#FFAD00;}
	.st21{fill:#FFCC00;}
	.st22{clip-path:url(#SVGID_2_);}
	.st23{fill:#1ED28C;}
	.st24{fill:#292C38;}
	.st25{fill:#C1E0D1;}
	.st26{clip-path:url(#SVGID_4_);}
	.st27{fill:#434350;}
	.st28{clip-path:url(#SVGID_4_);fill:none;stroke:#0099FF;stroke-width:13.64;stroke-miterlimit:10;}
	.st29{clip-path:url(#SVGID_4_);fill:#64E0B0;}
	.st30{clip-path:url(#SVGID_4_);fill:#8CE8C4;}
</style>
<g id="Layer_1">
	<polygon class="st0" points="1334.9,0 704.9,307.3 539.9,387.7 445.5,433.8 427.6,397 234,0 	"/>
	<polygon class="st1" points="755.5,443.4 551.3,519.2 482.7,544.6 393.2,577.8 38.4,709.5 0,723.8 0,0 590.9,0 704.9,307.3 
		706,310.1 	"/>
	<polygon class="st2" points="563.8,664.2 373.6,680.6 351.4,682.5 38.4,709.5 0,712.8 0,0 506.5,0 539.9,387.7 547.6,476.5 
		551.3,519.2 	"/>
	<polygon class="st3" points="503.1,0 427.6,397 393.2,577.8 378.7,653.8 373.6,680.6 342.2,845.8 218.4,822.3 0,780.7 0,0 	"/>
	<line class="st4" x1="234" y1="0" x2="204" y2="0"/>
	<line class="st4" x1="1358" y1="0" x2="1334.9" y2="0"/>
	<polyline class="st4" points="1443,0 1358,0 1334.9,0 590.9,0 506.5,0 	"/>
	<polyline class="st4" points="503.1,0 234,0 204,0 0,0 	"/>
</g>
<g id="Layer_2" class="st5">
	<g class="st6">
		<g>
			<circle class="st7" cx="1137.8" cy="517.2" r="295.5"/>
			<path class="st8" d="M1086.7,453.6c35.2,21.4,78.1,27.9,118.9,23.4s80-19.5,116.5-38.6c13-6.8,25.7-14.2,38.1-22"/>
			<path class="st8" d="M1035.2,541.4c145.1,189,401,53.4,401,53.4"/>
			<path class="st9" d="M1412.8,514l30.4,143.8c1.8,8.7-3.7,17.3-12.5,19.2l-65,13.7c-8.7,1.8-17.3-3.7-19.2-12.5l-30.4-143.8
				c-1.8-8.7,3.7-17.3,12.5-19.2l65-13.7C1402.4,499.7,1411,505.2,1412.8,514z"/>
			
				<rect x="1344.6" y="537.9" transform="matrix(0.9784 -0.2069 0.2069 0.9784 -93.3857 298.3174)" class="st10" width="70" height="115.5"/>
			<circle class="st11" cx="1395" cy="668.4" r="6.1"/>
			<path class="st11" d="M1374.3,518.6L1374.3,518.6c0.1,0.7-0.3,1.3-0.9,1.5l-18.7,4c-0.6,0.1-1.3-0.3-1.4-0.9l0-0.1
				c-0.1-0.6,0.3-1.3,0.9-1.4l18.7-4C1373.5,517.5,1374.2,517.9,1374.3,518.6z"/>
			<path class="st12" d="M1382.4,604.8C1382.4,604.8,1382.4,604.8,1382.4,604.8c5-0.7,9.7,2.9,10.3,7.9c0.7,5-2.9,9.6-7.9,10.3
				s-9.6-2.9-10.3-7.9C1373.8,610.1,1377.4,605.5,1382.4,604.8z M1389.3,600.6l-14.7,1.9l-5.1-38.8l14.7-1.9L1389.3,600.6z"/>
			<path class="st8" d="M976.1,600.6c0,0,13.6,56.7,150.5,104s163.7,154.9,163.7,154.9"/>
			
				<rect x="1307" y="770.9" transform="matrix(-0.6047 -0.7964 0.7964 -0.6047 1496.3037 2334.2671)" class="st13" width="40.7" height="49.9"/>
			<path class="st14" d="M1335,764.5L1335,764.5l5.7-4.3l0,0c8.7-6.6,21-4.9,27.6,3.8l0.8,1c6.6,8.7,4.9,21-3.8,27.6l-5.7,4.3l0,0
				L1335,764.5L1335,764.5z"/>
			
				<rect x="1255.2" y="789.4" transform="matrix(-0.6047 -0.7964 0.7964 -0.6047 1356.6473 2360.9587)" class="st15" width="18" height="108.8"/>
			
				<rect x="1267.4" y="801.1" transform="matrix(-0.6047 -0.7964 0.7964 -0.6047 1361.5743 2386.7764)" class="st16" width="11.3" height="108.8"/>
			
				<rect x="1249.6" y="777.7" transform="matrix(-0.6047 -0.7964 0.7964 -0.6047 1351.7057 2335.1194)" class="st16" width="11.3" height="108.8"/>
			<polygon class="st17" points="1163.9,920 1208.6,860.5 1233.2,893 			"/>
			<polygon class="st18" points="1182.2,912.8 1179.6,899.1 1163.9,920 			"/>
			<line class="st19" x1="1323.8" y1="815.9" x2="1307.1" y2="793.9"/>
			<line class="st19" x1="1331.8" y1="809.9" x2="1315.1" y2="787.9"/>
			<line class="st19" x1="1339.7" y1="803.8" x2="1323" y2="781.8"/>
			<line class="st19" x1="1347.7" y1="797.8" x2="1331" y2="775.8"/>
			<path class="st20" d="M1331.2,349.7l13.4-18.9l97.8,69.2l-13.4,18.9c-19.1,27-56.5,33.4-83.5,14.3
				C1318.5,414,1312.1,376.7,1331.2,349.7z M1348.6,354l-3.7,5.3c-0.3,0.3-0.5,0.7-0.7,1c-13.5,19.7-8.5,46.6,11.2,60.1
				c19.7,13.5,46.6,8.5,60.1-11.2l3.7-5.3L1348.6,354z"/>
			<path class="st21" d="M1574.4,402.8C1574.4,402.8,1574.4,402.8,1574.4,402.8c-9.5-3.4-20,1.5-23.4,11c-3.4,9.5,1.5,19.9,11,23.4
				c9.5,3.4,19.9-1.5,23.4-11C1588.8,416.7,1583.9,406.2,1574.4,402.8z"/>
			<polygon class="st21" points="1319.7,309.9 1308.9,340.8 1524.1,494 1553.1,413.9 1582,333.8 			"/>
			<path class="st20" d="M1532,504.3l-6-2.2c-2.8-1-4.2-4.1-3.2-6.9l58.7-162.3c1-2.8,4.1-4.2,6.9-3.2l6,2.2c2.8,1,4.2,4.1,3.2,6.9
				l-58.7,162.3C1537.8,503.9,1534.8,505.3,1532,504.3z"/>
			<g>
				<defs>
					<circle id="SVGID_1_" cx="1137.8" cy="517.2" r="295.5"/>
				</defs>
				<clipPath id="SVGID_2_">
					<use xlink:href="#SVGID_1_"  style="overflow:visible;"/>
				</clipPath>
				<g id="Layer_1_1_" class="st22">
					<path class="st23" d="M502.9,744.6c13.1-25.6,47.3-77.9,92.8-109.9c22.5,40.2,56,73.5,99.1,94.6c43.1,21,90,26.9,135.5,19.9
						c2.8,55.6-17.4,114.7-29.5,140.8l150.3,73.3c5.5-11.8,24.6-54.6,36.5-111.4c6.9-32,10.2-64.7,9.9-97.5
						c-0.8-53.8,9.7-107.4,34.7-154.9c1.4-2.7,6.7-13.5,7.9-16.2c15.4-34.1,35.4-65.9,61.3-93c23-24.1,41.4-52.1,54.3-82.8
						c54.5-128.7,1.8-279.8-120.9-346.7C897-14.5,725.7,41.3,657.7,181c-12,24.5-20.2,50.7-24.4,77.6c-6,37.9-18.1,74.6-36,108.5
						c-1.4,2.6-6.7,13.4-7.9,16.2c-22.1,49-57.9,90.2-100.7,122.7c-26,19.9-49.8,42.7-70.7,67.9c-37.4,44.4-59.4,85.7-65.3,97.4
						L502.9,744.6z"/>
					<circle class="st24" cx="1106.5" cy="330.1" r="25.1"/>
					<circle class="st12" cx="1104.3" cy="323.8" r="8.4"/>
					<path class="st25" d="M592.1,527.6c9.6,73.3,51.1,138.1,117.8,170.6c66.7,32.5,143.3,25.3,207-12.2
						c-60.6,16.1-128.7,10.9-191.4-19.7S616.8,585.3,592.1,527.6z"/>
					<g>
						<defs>
							
								<ellipse id="SVGID_3_" transform="matrix(0.8988 0.4384 -0.4384 0.8988 278.9355 -320.7161)" cx="834.1" cy="443.7" rx="178.7" ry="177.6"/>
						</defs>
						<clipPath id="SVGID_4_">
							<use xlink:href="#SVGID_3_"  style="overflow:visible;"/>
						</clipPath>
						<g class="st26">
							
								<ellipse transform="matrix(0.8988 0.4384 -0.4384 0.8988 278.9355 -320.7161)" class="st24" cx="834.1" cy="443.7" rx="178.7" ry="177.6"/>
							<path class="st27" d="M820.3,415.8c-15-11.1-32.3-18.6-50.6-22.2c-68.3-13.3-134.3,31.3-147.6,99.5
								c-13.3,68.3,31.3,134.3,99.5,147.6c6.2,11.5,14.2,22,23.6,31.1c50.1,48.2,129.8,46.6,177.9-3.5
								c48.2-50.1,46.6-129.8-3.5-177.9c-50.1-48.2-129.8-46.6-177.9,3.5c19.4-35.3,54.4-59.2,94.4-64.3
								C831.2,424.6,825.9,420,820.3,415.8L820.3,415.8z"/>
							<path class="st12" d="M819.3,554.7c14.4,2,24.5,15.4,22.5,29.8l-7.3,51.7l0,0l-53.9-7.6l0,0l7.3-51.7l0,0
								c2-14.4,15.4-24.5,29.8-22.5L819.3,554.7L819.3,554.7z"/>
							<path class="st12" d="M984.6,324.2l-33.7,34.9c-9.4,9.7-24.9,10-34.6,0.6l-1.1-1.1c-9.7-9.4-10-24.9-0.6-34.6l33.7-34.9l0,0
								L984.6,324.2L984.6,324.2z"/>
							<path class="st12" d="M923.1,566.6l18.9,35.6l0,0L905,621.8l0,0l-18.9-35.6v0c-5.3-9.9-1.5-22.2,8.4-27.5l1.2-0.6
								C905.5,552.9,917.9,556.6,923.1,566.6z"/>
							<path class="st12" d="M1025.3,431.3l-39.7,7c0,0,0,0,0,0c-11.1,1.9-21.6-5.4-23.6-16.5l-0.2-1.3l0,0
								c-2-11.1,5.4-21.6,16.5-23.6l39.7-7l0,0L1025.3,431.3L1025.3,431.3z"/>
						</g>
						
							<ellipse transform="matrix(0.8988 0.4384 -0.4384 0.8988 278.9355 -320.7161)" class="st28" cx="834.1" cy="443.7" rx="178.7" ry="177.6"/>
						<circle class="st29" cx="1083.3" cy="188.3" r="21.9"/>
						<path class="st30" d="M1100.9,191.2c0.9-5.9-1.1-11.9-5.5-15.9c-7.2-6.7-18.5-6.3-25.3,0.9c6.1-2.2,12.8-1.9,18.6,0.9
							C1094.6,179.9,1099,185,1100.9,191.2z"/>
						<circle class="st29" cx="1077" cy="428.8" r="13.5"/>
						<path class="st30" d="M1087.8,430.6c0.5-3.6-0.7-7.2-3.3-9.7c-4.4-4.2-11.4-4-15.5,0.5c3.7-1.4,7.8-1.2,11.4,0.6
							C1083.9,423.7,1086.6,426.8,1087.8,430.6z"/>
						<circle class="st29" cx="947.2" cy="815.9" r="13.5"/>
						<path class="st30" d="M958.1,817.6c0.5-3.6-0.7-7.2-3.3-9.7c-4.4-4.2-11.4-4-15.5,0.5c3.7-1.4,7.8-1.2,11.4,0.6
							C954.1,810.7,956.9,813.9,958.1,817.6z"/>
						<circle class="st29" cx="964.4" cy="639.7" r="11.2"/>
						<path class="st30" d="M973.4,641.1c0.5-3-0.6-6.1-2.8-8.1c-3.7-3.4-9.5-3.2-12.9,0.5c3.1-1.1,6.5-1,9.5,0.5
							C970.2,635.4,972.4,638,973.4,641.1z"/>
						<circle class="st29" cx="976.7" cy="229.3" r="16.3"/>
						<path class="st30" d="M989.8,231.4c0.7-4.4-0.8-8.8-4.1-11.8c-5.4-5-13.7-4.7-18.7,0.7c4.5-1.6,9.4-1.4,13.7,0.7
							C985.1,223.1,988.4,226.9,989.8,231.4z"/>
					</g>
				</g>
			</g>
		</g>
	</g>
</g>
<g id="Layer_3">
</g>
<g id="Layer_4">
</g>
<g id="Layer_5">
</g>
</svg>
