<?xml version="1.0" encoding="utf-8"?>
<!-- Generator: Adobe Illustrator 19.0.0, SVG Export Plug-In . SVG Version: 6.00 Build 0)  -->
<svg version="1.1" id="Layer_1" xmlns="http://www.w3.org/2000/svg" xmlns:xlink="http://www.w3.org/1999/xlink" x="0px" y="0px"
	 viewBox="0 0 1800 1000" style="enable-background:new 0 0 1800 1000;" xml:space="preserve">
<style type="text/css">
	.st0{fill:#001747;}
	.st1{fill:#11487D;}
	.st2{fill:#0E7FA6;}
	.st3{fill:#38C7BD;}
	.st4{fill:#E9F1DF;stroke:#F23C50;stroke-width:10;stroke-miterlimit:10;}
	.st5{fill:#E9F1DF;stroke:#FFCB05;stroke-width:10;stroke-miterlimit:10;}
	.st6{fill:#FFCB05;stroke:#E9F1DF;stroke-width:10;stroke-miterlimit:10;}
	.st7{fill:#F23C50;stroke:#E9F1DF;stroke-width:10;stroke-miterlimit:10;}
</style>
<polygon id="XMLID_17_" class="st0" points="179.3,-411.4 414.8,-336.7 633.8,-267.3 723.4,-238.8 867.2,-193.2 904.9,-181.3 
	1088.9,-123 1322.8,-48.7 1344.3,-4.6 445.5,433.8 225,-18.4 212.8,-15.1 223.5,-21.5 121.8,-230 "/>
<polygon id="XMLID_52_" class="st1" points="755.5,443.4 551.3,519.2 482.7,544.6 393.2,577.8 38.4,709.5 0,723.8 0,0 503.1,0 
	505.5,-12.4 506.5,0 590.9,0 706,310.1 "/>
<polygon id="XMLID_38_" class="st2" points="563.8,664.2 373.6,680.6 351.4,682.5 38.4,709.5 0,712.8 0,0 503.1,0 505.5,-12.4 
	506.5,0 547.6,476.5 551.3,519.2 "/>
<polygon id="XMLID_31_" class="st3" points="503.1,0 393.2,577.8 378.7,653.8 373.6,680.6 342.2,845.8 218.4,822.3 0,780.7 0,0 "/>
<polygon id="XMLID_2_" class="st4" points="336.2,381.4 324.7,395 329.4,412.2 312.9,405.5 298,415.3 299.3,397.5 285.3,386.4 
	302.7,382.1 308.9,365.4 318.4,380.6 "/>
<polygon id="XMLID_3_" class="st5" points="233.1,256 175.4,284.5 166.2,348.2 121.2,302.1 57.8,313 87.8,256 57.8,199 121.2,209.9 
	166.2,163.8 175.4,227.5 "/>
<polygon id="XMLID_5_" class="st6" points="363.1,351.8 341.7,331.5 312.8,337.7 325.5,311 310.8,285.5 340,289.3 359.8,267.4 
	365.2,296.4 392.1,308.4 366.2,322.5 "/>
<polygon id="XMLID_4_" class="st7" points="332.5,261.1 290.6,243.1 251.9,267.4 256.1,221.9 221.1,192.7 265.6,182.6 282.6,140.3 
	305.9,179.5 351.4,182.5 321.3,216.8 "/>
</svg>
