<?xml version="1.0" encoding="utf-8"?>
<!-- Generator: Adobe Illustrator 19.0.0, SVG Export Plug-In . SVG Version: 6.00 Build 0)  -->
<svg version="1.1" id="Layer_1" xmlns="http://www.w3.org/2000/svg" xmlns:xlink="http://www.w3.org/1999/xlink" x="0px" y="0px"
	 viewBox="0 0 1800 1000" style="enable-background:new 0 0 1800 1000;" xml:space="preserve">
<style type="text/css">
	.st0{fill:#3F102A;}
	.st1{fill:#5A142A;}
	.st2{fill:#8F1D2C;}
	.st3{fill:#DB2C2F;}
</style>
<polygon id="XMLID_17_" class="st0" points="179.3,-411.4 414.8,-336.7 633.8,-267.3 723.4,-238.8 867.2,-193.2 904.9,-181.3 
	1088.9,-123 1322.8,-48.7 1344.3,-4.6 445.5,433.8 225,-18.4 212.8,-15.1 223.5,-21.5 121.8,-230 "/>
<polygon id="XMLID_52_" class="st1" points="755.5,443.4 551.3,519.2 482.7,544.6 393.2,577.8 38.4,709.5 0,723.8 0,0 503.1,0 
	505.5,-12.4 506.5,0 590.9,0 706,310.1 "/>
<polygon id="XMLID_38_" class="st2" points="563.8,664.2 373.6,680.6 351.4,682.5 38.4,709.5 0,712.8 0,0 503.1,0 505.5,-12.4 
	506.5,0 547.6,476.5 551.3,519.2 "/>
<polygon id="XMLID_31_" class="st3" points="503.1,0 393.2,577.8 378.7,653.8 373.6,680.6 342.2,845.8 218.4,822.3 0,780.7 0,0 "/>
</svg>
