<?xml version="1.0" encoding="utf-8"?>
<!-- Generator: Adobe Illustrator 19.0.0, SVG Export Plug-In . SVG Version: 6.00 Build 0)  -->
<svg version="1.1" id="Layer_1" xmlns="http://www.w3.org/2000/svg" xmlns:xlink="http://www.w3.org/1999/xlink" x="0px" y="0px"
	 viewBox="-170 133 658 736" style="enable-background:new -170 133 658 736;" xml:space="preserve">
<style type="text/css">
	.st0{fill:#C8D7D7;}
	.st1{fill:#F42C52;}
	.st2{fill:#F9003C;}
	.st3{fill:#F23C50;}
	.st4{fill:#FFFFFF;}
	.st5{fill:#292C38;}
	.st6{fill:#E8E8E8;}
	.st7{fill:#40434E;}
	.st8{fill:#EF2B51;}
	.st9{fill:#001747;}
</style>
<g>
	<g>
		<path class="st0" d="M159,862.6c99.8,0,188.9-45.4,247.9-116.7c-6.3-132.8-116-238.5-250.4-238.5l0,0
			c-132.4,0-240.9,102.7-250,232.9C-34.6,814.8,56.6,862.6,159,862.6z"/>
	</g>
	<path class="st1" d="M159.8,290.6L159.8,290.6C41.2,290.6-55,386.8-55,505.4v154.4h429.5V505.4
		C374.6,386.8,278.4,290.6,159.8,290.6z"/>
	<path class="st2" d="M159.8,308.4L159.8,308.4C53.9,308.4-32,394.3-32,500.2v141.6h383.6V500.2
		C351.6,394.3,265.7,308.4,159.8,308.4z"/>
	<path class="st3" d="M-47.5,608.3c-2.6,0.9-5,1.9-7.3,3v37.5c147.5,2.3,289.8,2.2,429.4-0.3v-76.3C232.8,545.2,96,558.7-47.5,608.3
		z"/>
	<path class="st4" d="M41.6,438.9c31.4-1.9,58.5,22,60.4,53.4l-113.8,7C-13.8,467.8,10.1,440.8,41.6,438.9z"/>
	<path class="st5" d="M52.6,495.3c-2.8-3-4.7-6.9-5-11.4c-0.6-10.1,7.1-18.8,17.2-19.4c10.1-0.6,18.8,7.1,19.4,17.2
		c0.3,4.5-1.1,8.6-3.6,11.9L52.6,495.3z"/>
	<circle class="st4" cx="60.8" cy="478.2" r="3.6"/>
	<path class="st4" d="M262.4,419.5c37.9-2.3,70.6,26.5,72.9,64.5L198,492.4C195.6,454.4,224.5,421.8,262.4,419.5z"/>
	<path class="st5" d="M275.7,487.6c-3.4-3.6-5.7-8.4-6.1-13.7c-0.7-12.2,8.5-22.7,20.7-23.4c12.2-0.7,22.7,8.5,23.4,20.7
		c0.3,5.4-1.4,10.4-4.3,14.4L275.7,487.6z"/>
	<circle class="st4" cx="285.6" cy="467" r="4.4"/>
	<path class="st4" d="M7.9,521.6l52.7,119.8L6.5,653.6L0.9,523.2C0.7,519.2,6.3,517.9,7.9,521.6z"/>
	<path class="st4" d="M241.5,543.4l19.1,68.5l-48.1-4.5l25.4-64.2C238.5,541.4,241,541.6,241.5,543.4z"/>
	<path class="st4" d="M331.4,535.8l21.5,77.3l-58.7-5.5l28.5-72.2C324.3,531.3,330.2,531.6,331.4,535.8z"/>
	<path class="st6" d="M60.7,641.4l-22.8-51.7c-12.3,3.3-21.3,5.7-33.7,9.7l2.3,54.3L60.7,641.4z"/>
	<path class="st6" d="M260.5,611.8l-12.9-46.4c-6.2-0.1-12.4-0.1-18.6-0.1l-16.6,42L260.5,611.8z"/>
	<path class="st6" d="M352.9,613.1l-11.1-40c-10.8-1.6-21.6-2.9-32.4-4l-15.2,38.5L352.9,613.1z"/>
	<path class="st2" d="M-71.6,645.7l18.1,137.1c2.7,20.4,18.8,36.4,39.2,39l284.8,36c47.7,6,91.3-27.8,97.2-75.6l21.1-170.5
		c1.4-11.3-6.4-21.7-17.7-23.5c-137.8-22.3-282.4-10-428,34.6C-66.8,625.7-73,635.5-71.6,645.7z"/>
	<path class="st5" d="M241,326.6c43.7-37.4,63.1-98.7,44.1-156.8c-3-9.1-6.8-17.7-11.3-25.8c39.5,15.3,72,47.6,86.2,91
		c18.7,57.2,0.2,117.6-42.2,155.1C286.8,377.7,259.6,355.8,241,326.6z"/>
	<path class="st7" d="M360,235c-14.2-43.4-46.7-75.7-86.2-91c3.4,6.1,6.4,12.4,8.9,19.1c31,17.3,55.8,45.8,67.7,82.2
		c16.4,50,4.3,102.5-27.4,140C361.7,347.6,378,289.9,360,235z"/>
	<path class="st5" d="M29.5,360.3c-35.6-18-58.6-56.2-55.3-98.4c0.5-6.6,1.7-13,3.4-19.2c-24.1,16.8-40.7,43.8-43.2,75.4
		c-3.2,41.6,19.1,79.3,53.8,97.6C7,402.1,21.7,382.9,29.5,360.3z"/>
	<path class="st7" d="M-58.4,325.8c2.1-26.8,14.4-50.3,32.9-67.1c0.6-5.5,1.6-10.9,3.1-16c-24.1,16.8-40.7,43.8-43.2,75.4
		c-2.4,31.4,9.7,60.5,30.7,80.8C-51.5,379.2-60.6,353.4-58.4,325.8z"/>
	<path class="st8" d="M179,432.8c-16.9-10-25.7-23.2-30.3-34.5c50.6,13.1,74.8-4.5,74.8-4.5c-22.2-5.5-36.1-17.7-44.5-28.7
		c32.2-5.1,44.4-20.2,44.4-20.2c-42.1,1.1-60.7-30.4-60.7-30.4c-7.8-10.9-17.8-18.8-31.4-22c-37,4.9-71,19.2-99.5,40.4
		C102.6,449.9,179,432.8,179,432.8z"/>
	<path class="st9" d="M159.1,303.7c0,0,18.6,31.4,60.7,30.4c0,0-12.1,15.1-44.4,20.2c8.4,11,22.2,23.2,44.5,28.7
		c0,0-24.2,17.6-74.8,4.5c4.6,11.3,13.4,24.5,30.3,34.5c0,0-60.1,21.2-141.8-89.7c0,0-14.8-22.8,37.4-42.8
		C118,271.5,143.2,281.4,159.1,303.7z"/>
</g>
</svg>
