<?xml version="1.0" encoding="utf-8"?>
<!-- Generator: Adobe Illustrator 19.0.0, SVG Export Plug-In . SVG Version: 6.00 Build 0)  -->
<svg version="1.1" id="Capa_1" xmlns="http://www.w3.org/2000/svg" xmlns:xlink="http://www.w3.org/1999/xlink" x="0px" y="0px"
	 viewBox="-243 245 512 512" style="enable-background:new -243 245 512 512;" xml:space="preserve">
<style type="text/css">
	.st0{fill:#FFFFFF;}
</style>
<g>
	<g>
		<polygon class="st0" points="205,469 205,405 173,405 173,469 109,469 109,501 173,501 173,565 205,565 205,501 269,501 269,469 
					"/>
	</g>
</g>
<g>
	<g>
		<path class="st0" d="M-83,469v64H7.5c-13.2,37.2-48.8,64-90.5,64c-52.9,0-96-43.1-96-96s43.1-96,96-96c22.9,0,45,8.2,62.2,23.2
			l42-48.3C-7.6,354.8-44.6,341-83,341c-88.2,0-160,71.8-160,160s71.8,160,160,160S77,589.2,77,501v-32H-83z"/>
	</g>
</g>
</svg>
