<?xml version="1.0" encoding="utf-8"?>
<!-- Generator: Adobe Illustrator 19.0.0, SVG Export Plug-In . SVG Version: 6.00 Build 0)  -->
<svg version="1.1" id="Capa_1" xmlns="http://www.w3.org/2000/svg" xmlns:xlink="http://www.w3.org/1999/xlink" x="0px" y="0px"
	 viewBox="-454 456 90 90" style="enable-background:new -454 456 90 90;" xml:space="preserve">
<style type="text/css">
	.st0{fill:#FFFFFF;}
</style>
<g>
	<path id="YouTube" class="st0" d="M-383.1,521.8h-4.9l0-2.9c0-1.3,1-2.3,2.3-2.3h0.3c1.3,0,2.3,1,2.3,2.3L-383.1,521.8z
		 M-401.6,515.7c-1.3,0-2.3,0.8-2.3,1.9v14c0,1,1,1.9,2.3,1.9c1.3,0,2.3-0.8,2.3-1.9v-14C-399.3,516.5-400.3,515.7-401.6,515.7z
		 M-371.5,507.9v26.5c0,6.4-5.5,11.6-12.3,11.6h-50.5c-6.8,0-12.3-5.2-12.3-11.6v-26.5c0-6.4,5.5-11.6,12.3-11.6h50.5
		C-377,496.3-371.5,501.5-371.5,507.9z M-430.9,537.3l0-28l6.3,0v-4.1l-16.7,0v4.1l5.2,0v28H-430.9z M-412.1,513.5h-5.2v14.9
		c0,2.2,0.1,3.2,0,3.6c-0.4,1.2-2.3,2.4-3.1,0.1c-0.1-0.4,0-1.6,0-3.6l0-15h-5.2l0,14.8c0,2.3-0.1,4,0,4.7c0.1,1.4,0.1,2.9,1.3,3.8
		c2.3,1.7,6.8-0.3,8-2.7l0,3.1l4.2,0L-412.1,513.5L-412.1,513.5z M-395.4,530.6l0-12.4c0-4.7-3.5-7.6-8.4-3.7l0-9.2l-5.2,0l0,31.9
		l4.3-0.1l0.4-2C-398.9,540.1-395.4,536.6-395.4,530.6z M-379.1,529l-3.9,0c0,0.2,0,0.3,0,0.5v2.2c0,1.2-1,2.1-2.1,2.1h-0.8
		c-1.2,0-2.1-1-2.1-2.1v-0.2V529V526h9v-3.4c0-2.5-0.1-4.9-0.3-6.3c-0.6-4.5-6.9-5.2-10.1-2.9c-1,0.7-1.7,1.7-2.2,2.9
		c-0.4,1.3-0.7,3-0.7,5.3v7.4C-392.3,541.3-377.3,539.6-379.1,529z M-399.2,488.7c0.3,0.7,0.7,1.2,1.3,1.6c0.6,0.4,1.3,0.6,2.1,0.6
		c0.8,0,1.4-0.2,2-0.6c0.6-0.4,1.1-1,1.5-1.9l-0.1,2h5.8v-24.7h-4.6V485c0,1-0.9,1.9-1.9,1.9c-1,0-1.9-0.9-1.9-1.9v-19.2h-4.8v16.7
		c0,2.1,0,3.5,0.1,4.3C-399.6,487.4-399.4,488.1-399.2,488.7z M-416.8,474.8c0-2.4,0.2-4.2,0.6-5.6c0.4-1.3,1.1-2.4,2.1-3.2
		c1-0.8,2.3-1.2,3.9-1.2c1.3,0,2.5,0.3,3.5,0.8c1,0.5,1.7,1.2,2.2,2c0.5,0.8,0.9,1.7,1.1,2.6c0.2,0.9,0.3,2.2,0.3,4v6.3
		c0,2.3-0.1,4-0.3,5.1c-0.2,1.1-0.6,2.1-1.1,3c-0.6,0.9-1.3,1.6-2.2,2.1c-0.9,0.4-2,0.7-3.2,0.7c-1.3,0-2.4-0.2-3.4-0.6
		c-0.9-0.4-1.6-1-2.1-1.7c-0.5-0.8-0.9-1.7-1.1-2.8c-0.2-1.1-0.3-2.7-0.3-4.9L-416.8,474.8L-416.8,474.8z M-412.2,484.6
		c0,1.4,1,2.5,2.3,2.5c1.3,0,2.3-1.1,2.3-2.5v-13.2c0-1.4-1-2.5-2.3-2.5c-1.3,0-2.3,1.1-2.3,2.5V484.6z M-428.3,491.2h5.5l0-19
		l6.5-16.2h-6l-3.4,12.1l-3.5-12.1h-5.9l6.9,16.3L-428.3,491.2z"/>
</g>
</svg>
